<svg xmlns="http://www.w3.org/2000/svg" viewBox="0 0 1200 900" role="img" aria-labelledby="title desc">
  <title id="title">Plates of Power</title>
  <desc id="desc">Decorative title art for Plates of Power with a patterned plate background.</desc>
  <defs>
    <linearGradient id="bg" x1="0" y1="0" x2="1" y2="1">
      <stop offset="0%" stop-color="#f3f0ec"/>
      <stop offset="100%" stop-color="#e6ded6"/>
    </linearGradient>
    <linearGradient id="gold" x1="0" y1="0" x2="0" y2="1">
      <stop offset="0%" stop-color="#ffd768"/>
      <stop offset="55%" stop-color="#ffad33"/>
      <stop offset="100%" stop-color="#ff8c1f"/>
    </linearGradient>
    <filter id="shadow" x="-20%" y="-20%" width="140%" height="140%">
      <feDropShadow dx="0" dy="14" stdDeviation="12" flood-color="#2a1242" flood-opacity="0.4"/>
    </filter>
  </defs>
  <rect width="1200" height="900" fill="url(#bg)"/>
  <circle cx="600" cy="460" r="320" fill="#8fb9d6" stroke="#44537b" stroke-width="12"/>
  <circle cx="600" cy="460" r="220" fill="none" stroke="#5d6c93" stroke-width="8" opacity="0.7"/>
  <g fill="#ef4040" stroke="#2f183f" stroke-width="6" opacity="0.95">
    <path d="M600 120c18 0 28 16 28 32s-10 30-28 30-28-14-28-30 10-32 28-32z" fill="#ffd768"/>
    <path d="M600 88c18-20 48-17 56 5-18 10-37 18-56 24-19-6-38-14-56-24 8-22 38-25 56-5z"/>
    <path d="M910 458c0 18-16 28-32 28s-30-10-30-28 14-28 30-28 32 10 32 28z" fill="#ffd768"/>
    <path d="M942 458c20 18 17 48-5 56-10-18-18-37-24-56 6-19 14-38 24-56 22 8 25 38 5 56z"/>
    <path d="M290 458c0 18 16 28 32 28s30-10 30-28-14-28-30-28-32 10-32 28z" fill="#ffd768"/>
    <path d="M258 458c-20 18-17 48 5 56 10-18 18-37 24-56-6-19-14-38-24-56-22 8-25 38-5 56z"/>
    <path d="M600 790c18 0 28-16 28-32s-10-30-28-30-28 14-28 30 10 32 28 32z" fill="#ffd768"/>
    <path d="M600 822c18 20 48 17 56-5-18-10-37-18-56-24-19 6-38 14-56 24 8 22 38 25 56 5z"/>
  </g>
  <g fill="none" stroke="#ef4040" stroke-linecap="round" stroke-width="10">
    <path d="M340 255c-42-18-60-50-60-92 34 15 60 38 78 70"/>
    <path d="M860 255c42-18 60-50 60-92-34 15-60 38-78 70"/>
    <path d="M352 660c-38 24-53 57-48 99 31-20 53-48 67-82"/>
    <path d="M848 660c38 24 53 57 48 99-31-20-53-48-67-82"/>
  </g>
  <g font-family="Georgia, 'Times New Roman', serif" text-anchor="middle" filter="url(#shadow)">
    <text x="600" y="315" font-size="170" font-weight="700" fill="#2f0f57" stroke="#2f0f57" stroke-width="20">PLATES</text>
    <text x="600" y="315" font-size="170" font-weight="700" fill="url(#gold)">PLATES</text>
    <text x="600" y="465" font-size="110" font-weight="700" fill="#2f0f57" stroke="#2f0f57" stroke-width="14">OF</text>
    <text x="600" y="465" font-size="110" font-weight="700" fill="url(#gold)">OF</text>
    <text x="600" y="690" font-size="190" font-weight="700" fill="#2f0f57" stroke="#2f0f57" stroke-width="22">POWER</text>
    <text x="600" y="690" font-size="190" font-weight="700" fill="url(#gold)">POWER</text>
  </g>
</svg>
